<!-- Logo for https://github.com/lukechilds/dockerpi -->
<svg xmlns="http://www.w3.org/2000/svg" xmlns:xlink="http://www.w3.org/1999/xlink" width="242" height="213">
  <path stroke="#000" d="M51 1c-3-1-6-1-9 1-4 0-5 1-6 2-1 0-7-1-9 3-7-1-9 4-7 8-1 2-3 4 1 8-2 3-1 5 2 8-1 3 0 5 3 7-1 4 4 7 5 7 1 3 2 5 7 7 0 3 3 4 6 5-9 5-17 13-17 30l-2 3c-11 7-21 28-5 46l4 13c2 18 17 26 21 27 6 4 12 8 20 11 7 8 16 11 24 11h1c8 0 16-3 24-11 8-3 14-7 20-11 4-1 19-9 21-27l4-13c16-18 6-39-5-46l-2-3c0-17-8-25-17-30 2-1 5-2 6-5 5-2 6-4 7-7 1 0 5-3 5-7 2-2 4-4 3-7 3-3 3-5 2-8 3-4 2-6 1-8 2-4 0-9-7-8-2-4-8-3-9-3-1-1-2-2-6-2-3-2-6-2-9-1-3-2-6 0-8 1-5-2-6 0-8 1-4-1-6 1-8 3h-3c-7 5-10 13-12 17-1-4-4-12-11-17h-3c-2-2-4-4-8-3-3-1-4-3-8-1l-5-2-3 1z" />
  <path fill="#75a928" stroke="#000" d="M75 43c-3 12-19 12-24 12l2-2c-1-1-7 0-10-2l2-2c-3-1-7-2-9-4 1 0 2 1 4-1-3-1-6-2-9-5l4-1-7-5 3-1-6-6 5-1c-1-1-4-2-6-6h4l-4-7h9l-2-3c4-1 8 0 10 1 1-1 0-2-1-3l8 2c1-1-1-2-2-4 5 1 7 3 9 4 1-2 0-3-1-4 4 1 6 3 8 5V6l6 5 1-3 6 6 1-3c7 6 16 22 3 28-11-9-25-16-39-21 19 10 29 18 35 25z" />
  <path fill="#75a928" stroke="#000" d="M104 43c3 12 19 12 25 12l-3-2c2-1 7 0 11-2l-3-2c3-1 7-2 9-4-1 0-2 1-4-1 3-1 7-2 9-5l-4-1 8-5-4-1 6-6-4-1c0-1 4-2 5-6h-4l4-7h-9l2-3c-4-1-7 0-10 1-1-1 0-2 2-3l-9 2c-1-1 1-2 2-4-5 1-7 3-9 4-1-2 0-3 1-4l-7 5c-1-1-2-2-1-4l-6 5-1-3-6 6-1-3c-6 6-15 22-2 28 11-9 24-16 39-21-19 10-30 18-36 25z" />
  <path fill="#bc1142" stroke="#000" d="M90 164c-13 0-23-9-23-20 0-12 10-21 23-21 12 0 22 9 22 21 0 11-10 20-22 20z" />
  <path fill="#bc1142" stroke="#000" d="M81 115c-8 11-21 15-30 9-10-6-11-20-4-31s21-15 30-9 11 20 4 31z" />
  <path fill="#bc1142" stroke="#000" d="M98 114c8 11 21 15 30 9 10-6 11-20 4-31s-21-15-30-9-11 20-4 31z" />
  <path fill="#bc1142" stroke="#000" d="M25 132c-9-7-12-28 5-38 10-2 4 42-5 38z" />
  <path fill="#bc1142" stroke="#000" d="M151 132c10-7 12-29-4-38-10-3-4 41 4 38z" />
  <path fill="#bc1142" stroke="#000" d="M144 87c-1 7-38-25-32-26 18-3 32 7 32 26z" />
  <path fill="#bc1142" stroke="#000" d="M33 86c1 8 38-25 31-26-17-3-32 7-31 26z" />
  <path fill="#bc1142" stroke="#000" d="M69 68c0 6 8 11 20 12 13 0 21-5 21-11S99 56 89 56c-10-1-20 7-20 12z" />
  <path fill="#bc1142" stroke="#000" d="M111 178c0 5-11 14-22 14-11 1-22-9-22-12 0-5 14-9 23-9s21 3 21 7z" />
  <path fill="#bc1142" stroke="#000" d="M61 170c-6 3-18 2-27-10-6-11-5-22-1-25 7-4 16 1 24 10 6 8 9 21 4 25z" />
  <path fill="#bc1142" stroke="#000" d="M116 170c5 4 18 4 28-10 7-9 5-24 1-28-6-4-15 1-23 10-7 9-11 24-6 28z" />
  <path fill="#009ddb" stroke="#000" stroke-width="4" d="M82 211c-91 0-80-80-80-80h152c26 0 34-8 34-8s-14-19 3-42c19 11 18 28 18 28s19-7 31 4c-6 22-36 21-36 21s-28 77-122 77" />
</svg>
