<svg xmlns="http://www.w3.org/2000/svg" xmlns:xlink="http://www.w3.org/1999/xlink" width="245" height="214">
  <defs>
    <path d="M52 2c-3-1-6-1-8 1-4 0-6 1-7 2-1 0-6-1-9 3-7-1-9 4-6 8-2 2-3 4 0 8-1 3 0 5 2 8 0 3 1 5 3 7 0 4 4 7 6 7 0 3 1 5 6 7 1 3 4 4 7 5-10 5-18 13-18 30l-1 3c-11 7-21 28-6 46l5 13c2 18 17 26 20 27 6 4 12 8 20 11 8 8 16 11 25 11s17-3 25-11c8-3 14-7 20-11 3-1 18-9 20-27l5-13c15-18 5-39-6-46l-1-3c0-17-8-25-18-30 3-1 6-2 7-5 5-2 6-4 6-7 2 0 6-3 6-7 2-2 3-4 3-7 2-3 3-5 2-8 3-4 2-6 0-8 3-4 1-9-6-8-3-4-8-3-9-3-1-1-3-2-7-2-2-2-5-2-8-1-4-2-6 0-9 1-4-2-5 0-7 1-5-1-6 1-9 3h-2c-7 5-11 13-12 17-1-4-5-12-12-17h-2c-3-2-4-4-9-3-2-1-3-3-7-1l-6-2-3 1z" id="a"/>
    <path d="M77 44c-3 12-19 12-25 12l3-2c-2-1-7 0-11-2l3-2c-3-1-7-2-9-4 1 0 2 1 4-1-4-1-7-2-9-5l3-1-7-5 4-1-6-6 4-1c-1-1-4-2-5-6h3c0-3-2-5-3-7h9l-2-3c3-1 7 0 10 1 1-1 0-2-2-3l9 2c1-1-1-2-2-4 5 1 7 3 9 4 1-2 0-3-1-4l7 5c1-1 2-2 1-4l5 5c2-1 1-2 1-3l7 6 1-3c6 6 15 22 2 28-11-9-24-16-39-21 19 10 30 18 36 25z" id="b"/>
    <path d="M105 44c3 12 19 12 25 12l-2-2c1-1 6 0 10-2l-3-2c4-1 8-2 10-4-1 0-3 1-4-1 3-1 6-2 9-5l-4-1 7-5-4-1 7-6-5-1c1-1 4-2 6-6h-4l4-7h-10l3-3c-4-1-8 0-10 1-2-1 0-2 1-3l-8 2c-2-1 1-2 2-4-5 1-7 3-9 4-2-2 0-3 1-4-4 1-6 3-8 5V7l-6 5c-2-1-1-2-1-3l-6 6-1-3c-7 6-16 22-3 28 11-9 25-16 39-21-19 10-30 18-36 25z" id="c"/>
    <path d="M91 165c-12 0-22-9-22-20 0-12 10-21 22-21 13 0 23 9 23 21 0 11-10 20-23 20z" id="d"/>
    <path d="M89 116c-7 11-24 15-37 9s-18-20-10-31c7-11 23-15 36-9s18 20 11 31z" id="e"/>
    <path d="M93 114c7 11 23 15 36 9s18-20 11-31-24-15-37-9c-13 7-18 20-10 31z" id="f"/>
    <path d="M27 133c-9-7-12-28 5-38 10-2 3 42-5 38z" id="g"/>
    <path d="M153 133c9-7 12-29-5-38-10-3-3 41 5 38z" id="h"/>
    <path d="M145 88c0 7-37-25-31-26 17-3 32 7 31 26z" id="i"/>
    <path d="M35 87c0 8 37-25 31-26-17-3-32 8-31 26z" id="j"/>
    <path d="M71 69c0 6 8 11 20 12 12 0 20-5 21-11 0-6-12-13-21-13-10-1-20 7-20 12z" id="k"/>
    <path d="M113 179c0 5-11 14-22 14-11 1-22-9-22-12 0-5 14-9 23-9s21 3 21 7z" id="l"/>
    <path d="M62 171c-5 3-17 2-26-10-6-11-5-22-1-25 6-4 16 1 23 10 7 8 10 21 4 25z" id="m"/>
    <path d="M118 171c5 4 18 4 28-10 7-9 4-24 0-28-6-4-14 1-22 11-7 8-11 23-6 27z" id="n"/>
    <path d="M84 212c-91 0-80-80-80-80h152c26 0 34-8 34-8s-14-19 3-42c19 11 18 28 18 28s19-7 31 4c-6 22-36 21-36 21s-28 77-122 77" id="o"/>
  </defs>
  <use xlink:href="#a"/>
  <use xlink:href="#a" fill-opacity="0" stroke="#000" stroke-width="0"/>
  <use xlink:href="#b" fill="#75a928"/>
  <use xlink:href="#b" fill-opacity="0" stroke="#000" stroke-width="0"/>
  <use xlink:href="#c" fill="#75a928"/>
  <use xlink:href="#c" fill-opacity="0" stroke="#000" stroke-width="0"/>
  <use xlink:href="#d" fill="#009ddb"/>
  <use xlink:href="#d" fill-opacity="0" stroke="#000" stroke-width="0"/>
  <use xlink:href="#e" fill="#009ddb"/>
  <use xlink:href="#e" fill-opacity="0" stroke="#000" stroke-width="0"/>
  <use xlink:href="#f" fill="#009ddb"/>
  <use xlink:href="#f" fill-opacity="0" stroke="#000" stroke-width="0"/>
  <use xlink:href="#g" fill="#009ddb"/>
  <use xlink:href="#g" fill-opacity="0" stroke="#000" stroke-width="0"/>
  <use xlink:href="#h" fill="#009ddb"/>
  <use xlink:href="#h" fill-opacity="0" stroke="#000" stroke-width="0"/>
  <g>
    <use xlink:href="#i" fill="#009ddb"/>
    <use xlink:href="#i" fill-opacity="0" stroke="#000" stroke-width="0"/>
  </g>
  <g>
    <use xlink:href="#j" fill="#009ddb"/>
    <use xlink:href="#j" fill-opacity="0" stroke="#000" stroke-width="0"/>
  </g>
  <g>
    <use xlink:href="#k" fill="#009ddb"/>
    <use xlink:href="#k" fill-opacity="0" stroke="#000" stroke-width="0"/>
  </g>
  <g>
    <use xlink:href="#l" fill="#009ddb"/>
    <use xlink:href="#l" fill-opacity="0" stroke="#000" stroke-width="0"/>
  </g>
  <g>
    <use xlink:href="#m" fill="#009ddb"/>
    <use xlink:href="#m" fill-opacity="0" stroke="#000" stroke-width="0"/>
  </g>
  <g>
    <use xlink:href="#n" fill="#009ddb"/>
    <use xlink:href="#n" fill-opacity="0" stroke="#000" stroke-width="0"/>
  </g>
  <g>
    <use xlink:href="#o" fill="#009ddb"/>
    <use xlink:href="#o" fill-opacity="0" stroke="#000" stroke-width="4"/>
  </g>
</svg>
